<?xml version="1.0" encoding="iso-8859-1"?><svg width="168" height="168" viewBox="0 0 168 168" xmlns="http://www.w3.org/2000/svg" xmlns:xlink="http://www.w3.org/1999/xlink"><svg viewBox="-80 -80 672 672" width="42" height="42" id="about"><path d="M509.493 475.911c2.092 2.1 2.093 5.536.001 7.636l-26.777 26.879a5.382 5.382 0 0 1-7.608 0L335.064 369.877c-2.092-2.1-2.093-5.537 0-7.636l26.777-26.879a5.381 5.381 0 0 1 7.608 0l140.044 140.549z" fill="#355468"/><path d="M346.265 351.305c-.053-.053-.088-.115-.138-.169l-11.062 11.105c-2.092 2.099-2.092 5.536 0 7.636L475.11 510.426a5.382 5.382 0 0 0 7.608 0l11.048-11.091-147.501-148.03z" opacity=".1"/><path d="M395.613 347.81c2.093 2.099 2.094 5.535.002 7.636l-40.523 40.691c-2.091 2.101-5.515 2.101-7.608.002l-19.288-19.35c-2.093-2.1-2.093-5.536-.002-7.637l40.523-40.69c2.091-2.101 5.515-2.101 7.608-.002l19.288 19.35z" fill="#5a482e"/><path d="M345.282 351.995l-17.087 17.157c-2.091 2.101-2.091 5.537.002 7.637l19.288 19.35a5.381 5.381 0 0 0 7.608-.002l17.004-17.24-26.815-26.902z" opacity=".1"/><path d="M354.263 60.844c80.828 81.125 80.828 212.654 0 293.778-80.828 81.126-211.875 81.126-292.704 0-80.828-81.125-80.828-212.654 0-293.778 80.829-81.125 211.876-81.125 292.704 0z" fill="#8aa5b6"/><path d="M83.797 354.623c-80.828-81.125-80.828-212.654 0-293.778C121.382 23.12 169.826 2.951 219.03.309 162.42-2.73 104.803 17.442 61.56 60.844c-80.828 81.125-80.828 212.654 0 293.778 43.243 43.402 100.86 63.574 157.471 60.536-49.205-2.641-97.648-22.811-135.234-60.535z" opacity=".1"/><path d="M329.318 329.585c-66.943 67.189-175.867 67.189-242.811 0-66.945-67.19-66.945-176.514 0-243.704 66.943-67.19 175.868-67.19 242.811 0 66.942 67.19 66.942 176.514 0 243.704z" fill="#b9f5ed"/><path d="M208.15 334.226a12.273 12.273 0 0 1-9.498-4.517L86.146 192.219a12.534 12.534 0 0 1-.788-14.768l40.152-61.47a12.292 12.292 0 0 1 10.283-5.589h144.711c4.14 0 8.005 2.101 10.286 5.589l40.148 61.47a12.53 12.53 0 0 1-.786 14.768L217.648 329.708a12.269 12.269 0 0 1-9.498 4.518z" fill="#bf953e"/><g fill="#efba50"><path d="M130.199 111.768a12.312 12.312 0 0 0-4.685 4.213L85.36 177.452a12.504 12.504 0 0 0-2.001 7.677h94.762l-47.922-73.361zM238.178 185.129h94.765a12.487 12.487 0 0 0-2.004-7.677l-40.153-61.471a12.293 12.293 0 0 0-4.686-4.213l-47.922 73.361zM208.15 334.252l48.888-149.123h-97.474z"/></g><path fill="#f9d984" d="M208.079 110.393l-48.816 74.736h97.775l-48.818-74.736z"/><path d="M118.953 192.219a12.534 12.534 0 0 1-.788-14.768l40.152-61.47a12.294 12.294 0 0 1 10.284-5.589h-32.807a12.292 12.292 0 0 0-10.283 5.589l-40.152 61.47a12.53 12.53 0 0 0 .788 14.768l112.506 137.489c2.34 2.862-79.7-137.489-79.7-137.489z" opacity=".1"/><path d="M120.356 329.585c-66.945-67.19-66.945-176.514 0-243.704 29.171-29.278 66.314-45.794 104.481-49.555-49.42-4.871-100.558 11.644-138.331 49.555-66.945 67.19-66.945 176.514 0 243.704 37.772 37.91 88.91 54.426 138.331 49.555-38.167-3.763-75.31-20.277-104.481-49.555z" opacity=".1"/><path d="M328.955 97.551a6.324 6.324 0 0 1-6.102-4.629c-6.012-21.716-9.86-25.548-31.641-31.543-2.744-.759-4.65-3.241-4.65-6.077a6.314 6.314 0 0 1 4.65-6.08c21.782-5.994 25.628-9.825 31.641-31.541a6.32 6.32 0 0 1 6.102-4.628 6.322 6.322 0 0 1 6.099 4.628c6.014 21.715 9.854 25.547 31.645 31.541a6.307 6.307 0 0 1 4.637 6.08 6.305 6.305 0 0 1-4.637 6.077c-21.789 5.995-25.63 9.826-31.645 31.543a6.327 6.327 0 0 1-6.099 4.629z" fill="#ffc753"/><path d="M291.908 155.983a4.293 4.293 0 0 1-4.141-3.142c-4.081-14.74-6.693-17.342-21.478-21.411a4.286 4.286 0 0 1-3.156-4.124 4.285 4.285 0 0 1 3.156-4.126c14.785-4.069 17.395-6.67 21.478-21.409a4.29 4.29 0 0 1 4.141-3.142 4.29 4.29 0 0 1 4.14 3.142c4.082 14.739 6.689 17.341 21.479 21.409a4.279 4.279 0 0 1 0 8.25c-14.789 4.07-17.396 6.671-21.479 21.411a4.294 4.294 0 0 1-4.14 3.142z" fill="#fff"/></svg><svg viewBox="-80 -80 672 672" width="42" height="42" id="guarantee" x="42" y="42"><path fill="#f6dd4d" d="M214.05 182.273l-38.195 109.115-38.204-109.115h-27.477l51.976 144.913.922 2.543h25.557l51.098-142.319 1.826-5.137zM252.203 182.273h26.999V329.72h-26.999zM396.544 207.275c-2.97-5.598-7.168-10.351-12.467-14.123-5.171-3.661-11.324-6.434-18.278-8.235-6.775-1.749-14.199-2.637-22.05-2.637h-37.623v147.448h27v-55.202h5.803c8.576 0 16.7-1.067 24.149-3.174 7.526-2.15 14.174-5.274 19.746-9.301 5.675-4.087 10.197-9.139 13.423-15.027 3.226-5.939 4.872-12.663 4.872-19.985-.001-7.442-1.554-14.089-4.575-19.764zm-24.789 29.696c-1.579 2.935-3.874 5.504-6.827 7.612-3.046 2.176-6.724 3.84-10.948 4.975-4.352 1.178-9.208 1.766-14.43 1.766h-6.426v-45.85h10.001c4.446 0 8.721.435 12.723 1.297 3.772.785 7.074 2.091 9.847 3.866 2.628 1.715 4.727 3.874 6.204 6.46 1.476 2.56 2.227 5.828 2.227 9.728.001 3.814-.801 7.228-2.371 10.146z"/><path d="M504.508 237.901l-59.981-59.981V93.09c0-14.14-11.46-25.6-25.6-25.6h-84.838L274.108 7.51C269.303 2.697 262.793.001 256 .001s-13.303 2.697-18.099 7.501l-59.981 59.98H93.082c-14.14 0-25.6 11.46-25.6 25.6v84.83L7.501 237.893C-2.5 247.894-2.5 264.099 7.501 274.1l59.981 59.981v84.83c0 14.14 11.46 25.6 25.6 25.6h84.838l59.981 59.981c4.796 4.813 11.307 7.509 18.099 7.509s13.303-2.697 18.099-7.501l59.981-59.981h84.838c14.14 0 25.6-11.46 25.6-25.6v-84.83l59.981-59.981c10.001-10.001 10.001-26.214.009-36.207zm-85.59 85.581v95.437h-95.437L256 486.401l-67.482-67.482H93.082v-95.437L25.6 256.001l67.482-67.482V93.082h95.437L256 25.601l67.482 67.482h95.437v95.437l67.482 67.482-67.483 67.48z" fill="#f6dd4d"/><circle cx="256" cy="76.801" r="12.8" fill="#f6dd4d"/><circle cx="256" cy="435.201" r="12.8" fill="#f6dd4d"/><circle cx="129.28" cy="129.281" r="12.8" fill="#f6dd4d"/><circle cx="382.711" cy="382.712" r="12.8" fill="#f6dd4d"/><circle cx="382.711" cy="129.281" r="12.8" fill="#f6dd4d"/><circle cx="129.28" cy="382.712" r="12.8" fill="#f6dd4d"/><circle cx="435.2" cy="256.001" r="12.8" fill="#f6dd4d"/><circle cx="76.8" cy="256.001" r="12.8" fill="#f6dd4d"/></svg><svg viewBox="-80 -80 672 672" width="42" height="42" id="products" x="84" y="84"><circle cx="256" cy="256" r="256" fill="#2c5871"/><path d="M507.028 306.299L391.834 191.79l.476-.522-.476-.333-67.968-47.862H189.814l-22.825 16.072-45.143 31.79-.476.333 60.57 66.237H119.2l-35.005 24.653-.246.174 69.77 76.303.123-.133L302.86 507.648c102.649-19.005 183.811-99.185 204.168-201.349z" fill="#153040"/><path fill="#d7eced" d="M188.242 257.505h-69.043l-35.246 24.827 69.77 76.298 69.77-76.298z"/><path fill="#15b0bf" d="M84.193 282.158h139.054l-35.005-24.653h-69.043z"/><path fill="#fff" d="M153.723 358.63l-33.285-76.472h33.285zM187.008 282.158l-33.285 76.472 69.77-76.298z"/><path fill="#d7eced" d="M223.493 282.332l-36.485-.174-17.946-24.653h19.18zM153.723 282.158h-33.285l14.064-24.53 19.221-.123zM390.917 257.505h-69.043l-35.246 24.827 69.77 76.298 69.77-76.298z"/><path fill="#15b0bf" d="M286.868 282.158h139.055l-35.006-24.653h-69.043z"/><path fill="#fff" d="M356.398 358.63l-33.285-76.472h33.285zM389.683 282.158l-33.285 76.472 69.77-76.298z"/><path fill="#d7eced" d="M426.168 282.332l-36.485-.174-17.945-24.653h19.179zM356.398 282.158h-33.285l14.065-24.53 19.22-.123zM323.871 143.068H189.814l-68.439 48.2L256.84 339.415l135.47-148.147z"/><path fill="#15b0bf" d="M121.851 190.935h269.983l-67.963-47.867H189.814z"/><path fill="#fff" d="M256.84 339.415l-64.625-148.48h64.625zM321.464 190.935l-64.624 148.48 135.47-148.147z"/><path fill="#d7eced" d="M392.31 191.268l-70.846-.333-34.836-47.867h37.243zM256.84 190.935h-64.625l27.31-47.626 37.315-.241z"/></svg><svg viewBox="-80 -80 656 656" width="42" height="42" id="staff" x="126" y="126"><g fill="#FFF"><path d="M320 344h-21.56c22.672-15.936 37.56-42.24 37.56-72v-1.76l8.928-2.232A30.408 30.408 0 0 0 368 238.464c0-16.8-13.664-30.464-30.464-30.464H336v-16h-16v80c0 39.704-32.304 72-72 72s-72-32.296-72-72v-80h-16v16h-1.536c-16.8 0-30.464 13.664-30.464 30.464a30.4 30.4 0 0 0 23.072 29.544L160 270.24V272c0 29.76 14.888 56.064 37.56 72H176c-30.88 0-56 25.128-56 56v96h16v-96c0-22.056 17.944-40 40-40h20.32L248 420.288 299.68 360H320c22.056 0 40 17.944 40 40v96h16v-96c0-30.872-25.12-56-56-56zm16-120h1.536c7.976 0 14.464 6.488 14.464 14.464a14.445 14.445 0 0 1-10.96 14.032l-5.04 1.256V224zm-176 29.752l-5.04-1.256A14.452 14.452 0 0 1 144 238.464c0-7.976 6.488-14.464 14.464-14.464H160v29.752zm88 141.96L217.392 360h61.216L248 395.712z"/><path d="M312 408h16v88h-16zM168 408h16v88h-16zM240 432h16v16h-16zM240 464h16v16h-16zM354.824 144.496L307.744 88H188.256l-47.08 56.496L248 251.312l106.824-106.816zM227.104 152h41.872l-20.968 62.728L227.104 152zm39.208 58.376L285.768 152h38.92l-58.376 58.376zm39.376-99.856L326.92 136h-33.976l12.744-25.48zm-14.64-6.52l-12.04 24.088L262.944 104h28.104zm-25.992 32h-34.112L248 110.424 265.056 136zm-32-32l-16.104 24.144L204.928 104h28.128zm-42.744 6.52L203.056 136H169.08l21.232-25.48zm-19 41.48h38.92l19.456 58.376L171.312 152zM240 0h16v48h-16zM166.923 19.597l24 41.567-13.856 8-24-41.567zM99.572 81.053l41.567 24-8 13.856-41.567-24zM72 168h48v16H72zM376 168h48v16h-48zM396.398 81.096l7.998 13.858-41.574 23.995-7.998-13.857zM329.029 19.606l13.858 7.999-23.996 41.573-13.858-7.998z"/></g></svg></svg>